<svg id="SvgjsSvg1238" width="288" height="288" xmlns="http://www.w3.org/2000/svg" version="1.1" xmlns:xlink="http://www.w3.org/1999/xlink" xmlns:svgjs="http://svgjs.com/svgjs"><defs id="SvgjsDefs1239"></defs><g id="SvgjsG1240"><svg xmlns="http://www.w3.org/2000/svg" enable-background="new 0 0 1229.5 849.9" viewBox="0 0 1229.5 849.9" width="288" height="288"><path fill="#f8f8ff" d="M37.9 380.8c-18.1-33.3-23.3-72.2-14.4-109C48.8 167.5 120.4-15.6 309.9 10.3c263 36 339.5 45 447.4 11.2s294.5-33.7 352.9 42.7c35.4 46.3 155.1 254 78.7 326s37 214.4 40.5 290-105.6 85.4-242.8 87.7S52.4 744 52.4 744-49.8 567.8 31.2 504.9c50.1-39 27.6-85.6 6.7-124.1z" class="colorf8f8ff svgShape"></path><path fill="#f5f5fc" d="M117.6 661.6c-17.5-.6-83.2 8.4-87.1 11.8-1 .9-15.4 43.7 47.9 98.9 101.2 88.4 373.4 91.4 461.6 57.8 128-48.8 268.3 42.7 559 7.7 92.9-11.2 155-153.5 112.8-172-25.3-11-55.6 18.2-81 5.4-29.3-14.8-88.6-24-125.3-12.7-1.5.4-2.4 2-2 3.5.4 1.4 1.8 2.3 3.3 2l-19.3 6.2c-21.5 16-16.7-5.3-67.1-8l-148.6-3.7c-53.1 1.6-257.6 10.6-337.6 7.4h-44c-29.4-3.7-105.5-5.4-108.3-5.5l-164.3 1.2z" class="colorf5f5fc svgShape"></path><path fill="#bac6f2" d="M178.1 443.9h45s14 2 15 12-.3 140.1-.3 140.1l90.3-1.1s9 3 9 13-7 14-7 14l-137.2-.6-14.8-177.4" class="colorbac6f2 svgShape"></path><path fill="#b1c1f2" d="M178.1 443.9s-13 2-14 22 0 155 0 155l137.1 1c2 0 3.9-.8 5.2-2.3 2-2.2 4.7-5.6 4.7-8.7 0-5.4-2-14-13-14s-104-1-104-1l-2-140c0 .1 0-10-14-12z" class="colorb1c1f2 svgShape"></path><path fill="#bac6f2" d="M235.5 621.6s-2.4 11.3 5.6 11.3h13c1 0 5.3-6 2.6-11s-21.2-.3-21.2-.3" class="colorbac6f2 svgShape"></path><path fill="#e9edfa" d="m241.1 633 1 112.9h9l.5-113.6z" class="colore9edfa svgShape"></path><path fill="#e9edfa" d="m204.1 743.9 86 1v8l-86-1z" class="colore9edfa svgShape"></path><path fill="#ffffff" d="m374.1 753.9-4-209h21l-1 209zM831.1 545.9h23l-8 209-15 1z" class="colorfff svgShape"></path><path fill="#e9edfa" d="m354.1 508.9 1 34 509 3 .6-38z" class="colore9edfa svgShape"></path><path fill="#bac6f2" d="m323.1 489.9 572 2v19l-571-1z" class="colorbac6f2 svgShape"></path><g fill="#000000" class="color000 svgShape"><path fill="#e9edfa" d="m1022.8 667.7 1 85 114-2v-83z" class="colore9edfa svgShape"></path><path fill="#ffffff" d="m1112.8 751.1.1-83.4h-7.3" class="colorfff svgShape"></path><path fill="#bac6f2" d="M1052.4 667.5s-2.7-50.4 21.1-64.7 3.4-47.7 8.2-65.4 27.2-30.7 27.2-44.3-2-51.8 23.8-63.3 46.3 3.4 38.2 25.9-14.3 48.4-23.2 56.5-5.4 21.1-4.1 36.8-10.9 41.5-17.7 51.1 0 25.9-2 42.9c0 0-3.7 23.8-7.5 24.6s-64-.1-64-.1z" class="colorbac6f2 svgShape"></path><path fill="#bac6f2" d="M1105.6 669.1s3-24-23.6-30.8-3.8-22.7-9.1-31.1-30.4-14.6-30.4-21 2.3-24.6-26.6-30.1-51.7 1.6-42.6 12.3 16 23 25.8 26.9 6.1 10 4.6 17.5 12.2 19.8 19.8 24.3 0 12.3 2.3 20.4c0 0 4.2 11.3 8.3 11.7s71.5-.1 71.5-.1z" class="colorbac6f2 svgShape"></path><path fill="#bac6f2" d="M1083.4 669s-2.1-25.1 16.4-32.2 2.7-23.7 6.3-32.5 21.2-15.2 21.2-22-1.6-25.7 18.5-31.5 36 1.7 29.6 12.9-11.1 24-18 28.1-4.2 10.5-3.2 18.3-8.5 20.7-13.8 25.4 0 12.9-1.6 21.3c0 0-2.9 11.8-5.8 12.2s-49.6 0-49.6 0z" class="colorbac6f2 svgShape"></path></g><g fill="#000000" class="color000 svgShape"><path fill="#ffffff" d="m441.9 185.7.7 191.8 533.5-.8V187.2z" class="colorfff svgShape"></path><path fill="#bac6f2" d="M537.3 245.7v23.6l218.5-1v-22.6zM537.3 311.4V335l218.5-1v-22.6z" class="colorbac6f2 svgShape"></path><circle cx="500.4" cy="261.1" r="16.4" fill="#bac6f2" class="colorbac6f2 svgShape"></circle><circle cx="500.4" cy="322.4" r="16.4" fill="#bac6f2" class="colorbac6f2 svgShape"></circle><path fill="#e9edfa" d="M815.5 271.5h129.7v63.3H815.5z" class="colore9edfa svgShape"></path><path fill="none" stroke="#bac6f2" stroke-linecap="round" stroke-linejoin="round" stroke-width="3" d="M813.4 331.8s10.1-22.1 19.7-19.7 12 12.5 19.2 8.2 11.9-21.7 18.9-24.5c10-3.9 13.3.4 26.8 8.1s19.2 6 24.7.3c5.1-5.2 14.5-19.3 24.9-25.6" class="colorStrokebac6f2 svgStroke"></path><path fill="#ffffff" d="M207.3 188.2h193v183.5h-193z" class="colorfff svgShape"></path><circle cx="301.3" cy="299.3" r="49.9" fill="none" stroke="#bac6f2" stroke-linecap="round" stroke-linejoin="round" stroke-width="6" class="colorStrokebac6f2 svgStroke"></circle><path fill="#bac6f2" d="M220 204.1h49.1v11.6H220zM220 222.3h49.1v11.6H220z" class="colorbac6f2 svgShape"></path></g><g fill="#000000" class="color000 svgShape"><path fill="#bac5f4" d="M363.5 460.1h152.3s5.7-.3 5.7-6.9v-13.1h-164V456c.8 2.5 3.2 4.2 6 4.1" class="colorbac5f4 svgShape"></path><path fill="#bac5f4" d="m357.5 341.1-.1 104 164.1-1.5V338.1s1-6-5.4-6H363.7s-6.9 0-6.2 9M426.5 488v-28.9l24 1v25.4z" class="colorbac5f4 svgShape"></path><path fill="#bac5f4" d="M388.4 485.1h99.7l.1 5h-99.8z" class="colorbac5f4 svgShape"></path><path fill="#ffffff" d="M438 447.2c2.7 0 4.8 2.1 4.8 4.8s-2.1 4.8-4.8 4.8c-2.7 0-4.8-2.1-4.8-4.8s2.2-4.8 4.8-4.8" class="colorfff svgShape"></path><path fill="#f8f8ff" d="M362.5 337.1h154v101h-154z" class="colorf8f8ff svgShape"></path><path fill="#fa5f5d" d="M370.2 342.3c1.3 0 2.4 1.1 2.4 2.4 0 1.3-1.1 2.4-2.4 2.4s-2.4-1.1-2.4-2.4c0-1.3 1.1-2.4 2.4-2.4" class="colorfa5f5d svgShape"></path><path fill="#fdbc4e" d="M378.4 342.3c1.3 0 2.4 1.1 2.4 2.4 0 1.3-1.1 2.4-2.4 2.4-1.3 0-2.4-1.1-2.4-2.4 0-1.3 1.1-2.4 2.4-2.4" class="colorfdbc4e svgShape"></path><path fill="#37cd58" d="M387 342.3c1.3 0 2.4 1.1 2.4 2.4 0 1.3-1.1 2.4-2.4 2.4-1.3 0-2.4-1.1-2.4-2.4 0-1.3 1.1-2.4 2.4-2.4" class="color37cd58 svgShape"></path><linearGradient id="a" x1="1395.376" x2="1430.376" y1="1325.582" y2="1325.582" gradientTransform="translate(-1009.9 -968)" gradientUnits="userSpaceOnUse"><stop offset="0" stop-color="#f71d69" class="stopColorf71d69 svgShape"></stop><stop offset="1" stop-color="#f8c648" class="stopColorf8c648 svgShape"></stop></linearGradient><path fill="url(#a)" d="M420.5 359.9c-.1 1.3-1.2 2.3-2.5 2.2h-29.5c-1.5 0-3-1-3-2.2v-4.5c0-1.2 1.4-2.3 3-2.3h29.4c1.3-.1 2.5.9 2.6 2.2v4.6z"></path><linearGradient id="b" x1="1395.376" x2="1501.376" y1="1346.582" y2="1346.582" gradientTransform="translate(-1009.9 -968)" gradientUnits="userSpaceOnUse"><stop offset="0" stop-color="#93fd94" class="stopColor93fd94 svgShape"></stop><stop offset="1" stop-color="#21c4c0" class="stopColor21c4c0 svgShape"></stop></linearGradient><path fill="url(#b)" d="M491.5 389.7c-.1 1.4-1.3 2.5-2.7 2.4H388.5c-1.5 0-3-1.1-3-2.4v-22.2c0-1.3 1.5-2.4 3-2.4h100.3c1.4-.1 2.6 1 2.7 2.4v22.2z"></path><linearGradient id="c" x1="1395.376" x2="1428.376" y1="1370.579" y2="1370.579" gradientTransform="translate(-1009.9 -968)" gradientUnits="userSpaceOnUse"><stop offset="0" stop-color="#93fd94" class="stopColor93fd94 svgShape"></stop><stop offset="1" stop-color="#21c4c0" class="stopColor21c4c0 svgShape"></stop></linearGradient><path fill="url(#c)" d="M418.5 408.7c0 1.3-1.1 2.4-2.4 2.4h-27.6c-1.6 0-3-1.1-3-2.4v-12.2c0-1.3 1.5-2.4 3-2.4h27.4c1.3-.1 2.5.9 2.6 2.3V408.7z"></path><linearGradient id="d" x1="1431.376" x2="1464.376" y1="1370.579" y2="1370.579" gradientTransform="translate(-1009.9 -968)" gradientUnits="userSpaceOnUse"><stop offset="0" stop-color="#93fd94" class="stopColor93fd94 svgShape"></stop><stop offset="1" stop-color="#21c4c0" class="stopColor21c4c0 svgShape"></stop></linearGradient><path fill="url(#d)" d="M454.5 408.7c0 1.3-1.1 2.4-2.4 2.4h-27.6c-1.6 0-3-1.1-3-2.4v-12.2c0-1.3 1.5-2.4 3-2.4h27.4c1.3-.1 2.5.9 2.6 2.3V408.7z"></path><linearGradient id="e" x1="1468.376" x2="1501.376" y1="1370.582" y2="1370.582" gradientTransform="translate(-1009.9 -968)" gradientUnits="userSpaceOnUse"><stop offset="0" stop-color="#93fd94" class="stopColor93fd94 svgShape"></stop><stop offset="1" stop-color="#21c4c0" class="stopColor21c4c0 svgShape"></stop></linearGradient><path fill="url(#e)" d="M491.5 408.7c-.1 1.4-1.3 2.5-2.7 2.4h-27.4c-1.5.1-2.7-1-2.9-2.4v-12.2c.1-1.5 1.4-2.5 2.9-2.4h27.4c1.4-.1 2.7 1 2.8 2.4l-.1 12.2z"></path><path fill="#e9edfb" d="M454.5 415.6c-.2.5-.6.8-1.1.9-.1 0-.1 0-.2-.4H423c-.6.4-1.5 0-1.5-.5v-.4c0-.5.9-1 1.5-1.1h30.2c.5.1.8.5.9.9 0 .1 0 .1.3.2l.1.4zM454.5 419.5c-.2.5-.6.9-1.1 1 0 0-.1 0-.1-.4H423c-.6.4-1.5 0-1.5-.6v-.4c0-.5.9-.9 1.5-1h30.2c.5.1 1 .5 1.2 1l.1.4zM454.5 423.5c-.2.6-.7 1-1.2 1.1v-.5H423c-.5.3-1.1.2-1.4-.3-.1-.1-.1-.2-.1-.3v-.4c0-.5.9-.8 1.5-1h30.2c.5.1 1 .5 1.2 1l.1.4zM454.5 427.4c-.3.6-.7 1.2-1.2 1.7H423c-.6-.5-1.5-1.1-1.5-1.7v-.4c0-.5.9-1.1 1.5-.9h30.2c.4-.1.8.2.9.6v.3l.3.1.1.3zM437.7 431.4c0 .5-.3.7-.9.7h-13.9c-.6 0-1.4-.2-1.4-.7v-.4c0-.5.8-.9 1.4-.9h13.9c.5 0 .9.4.9.9v.4zM491.5 415.6c-.6.5-.5.9-1.1.5h-30.2c-.5.4-1 .1-1-.4l.3-.1v-.4c-.3-.5.1-1 .7-1.1h30.2c.6.2.5.6 1.1 1.1v.4zM491.5 419.5c-.6.5-.5 1-1.1.6h-30.2c-.6.4-1 0-.7-.6v-.4c-.3-.5.1-.9.7-1h30.2c.6.2.5.5 1.1 1v.4zM491.5 423.5c-.6.5-.5 1.1-1.1.6h-30.2c-.6.4-1 0-.7-.6v-.4c-.3-.5.1-.8.7-1h30.2c.6.2.5.5 1.1 1v.4zM491.5 427.4c-.6.5-.5 1.2-1.1 1.7h-30.2c-.6-.6-1-1.1-.7-1.7v-.4c-.2-.2-.2-.6 0-.8.2-.1.4-.2.6-.1h30.3c.6-.2.5.4 1.1.9v.4zM474.9 431.4c0 .5 0 .7-.5.7h-14c-.6 0-.9-.2-.9-.7v-.4c0-.5.4-.9.9-.9h13.9c.6 0 .5.4.5.9l.1.4zM417.5 415.6c.4.5.2.9-.4.5h-30.3c-.4.3-.9.2-1.1-.1-.1-.1-.1-.2-.2-.4v-.4c.2-.6.7-1 1.3-1.1H417c.6.2.8.6.4 1.1l.1.4zM417.5 419.5c.4.5.2 1-.4.6h-30.3c-.6.5-1.1 0-1.3-.6v-.4c.1-.5.7-.9 1.3-1H417c.6.2.8.5.4 1l.1.4zM417.5 423.5c.4.5.2 1.1-.4.6h-30.3c-.6.5-1.1 0-1.3-.6v-.4c.1-.5.7-.8 1.3-1H417c.6.2.8.5.4 1l.1.4zM408.5 426.1h8.6c.6-.2.8.4.4.9v.4c.4.5.2 1.2-.4 1.7h-30.3c-.6-.4-1-1-1.3-1.7v-.4c.1-.6.7-1 1.3-.9h21.7M402.5 431.4c0 .5-.3.7-.9.7h-15c-.6 0-1.1-.2-1.1-.7v-.4c.1-.5.6-.9 1.1-.9h15c.5 0 .9.4.9.8v.5z" class="colore9edfb svgShape"></path></g><g fill="#000000" class="color000 svgShape"><linearGradient id="f" x1="838.972" x2="954.467" y1="-899.378" y2="-899.378" gradientTransform="matrix(1 0 0 -1 -858.14 -199.79)" gradientUnits="userSpaceOnUse"><stop offset="0" stop-color="#93fd93" class="stopColor93fd93 svgShape"></stop><stop offset=".51" stop-color="#21c2c1" class="stopColor21c2c1 svgShape"></stop><stop offset="1" stop-color="#84f599" class="stopColor84f599 svgShape"></stop></linearGradient><path fill="url(#f)" d="M83.3 750.5s8.8-47.8-37.6-73.4C-.6 651.5-2.8 651.8-12 648.9c-5.3-1.8-10.7 2-4.6 9.6 6.1 7.7 2.6 9.6 14.8 13s14 18.2 20.1 21.9 11.4 4.7 30 12.7c16.9 7.3 31.3 27.9 31.3 35.1s16.5 9.7 16.5 9.7l-12.8-.4z"></path><linearGradient id="g" x1="882.247" x2="947.871" y1="-862.903" y2="-943.36" gradientTransform="matrix(1 0 0 -1 -858.14 -199.79)" gradientUnits="userSpaceOnUse"><stop offset="0" stop-color="#93fd93" class="stopColor93fd93 svgShape"></stop><stop offset=".51" stop-color="#21c2c1" class="stopColor21c2c1 svgShape"></stop><stop offset="1" stop-color="#84f599" class="stopColor84f599 svgShape"></stop></linearGradient><path fill="url(#g)" d="M81.7 743.8s11.8-44-28.8-67.8-54.7-23.5-62.8-26.4c-4.6-1.7 8 4.1 13.3 11.1 5.3 7.1 4 5.5 13.5 10.7 11 6.1 15.6 12 22.1 13.2 9.4 1.8 6.6 11.6 22.9 18.9 14.7 6.7 16.6 24.6 16.6 31.3 0 6.8 14.4 9 14.4 9H81.7z"></path><linearGradient id="h" x1="957.812" x2="1048.033" y1="-953.882" y2="-884.075" gradientTransform="matrix(1 0 0 -1 -858.14 -199.79)" gradientUnits="userSpaceOnUse"><stop offset="0" stop-color="#93fd93" class="stopColor93fd93 svgShape"></stop><stop offset=".51" stop-color="#21c2c1" class="stopColor21c2c1 svgShape"></stop><stop offset="1" stop-color="#84f599" class="stopColor84f599 svgShape"></stop></linearGradient><path fill="url(#h)" d="m122.5 737.3 4.6-4.4c2.2-2 4.9-3.5 7.8-4.3 14.3-3.8 59.4-17.9 78.1-52 .2-.3 0-.7-.3-.8h-.1c-.1 0-.2-.1-.2-.1-6.2-.5-38.3-1-81.2 35.6-.8.6-1.5 1.4-2.1 2.1-1.1 1.5-2.9 4.1-3.7 5.4-1.1 2 1.1 5.3-1.9 8.2-3 2.9-9.5 10.2-9.5 10.2l5.3 3.9 3.2-3.8z"></path><linearGradient id="i" x1="980.493" x2="903.003" y1="-918.429" y2="-820.331" gradientTransform="matrix(1 0 0 -1 -858.14 -199.79)" gradientUnits="userSpaceOnUse"><stop offset="0" stop-color="#93fd93" class="stopColor93fd93 svgShape"></stop><stop offset=".51" stop-color="#21c2c1" class="stopColor21c2c1 svgShape"></stop><stop offset="1" stop-color="#84f599" class="stopColor84f599 svgShape"></stop></linearGradient><path fill="url(#i)" d="M98.1 734.5s12.3-110.1-21.3-144.7c-30.9-31.8-31.4-2.6-31.3 2.4 0 .5.2.8.3 1.2 7.3 13.6 9.8 29.3 7.2 44.5-3.2 15.9 19.6 13.8 21.6 29.5s9.9 39.9 9.1 51c-.8 11.1-.9 21.9-.9 21.9l12.4.4 2.9-6.2z"></path><linearGradient id="j" x1="903.984" x2="958.505" y1="-857.639" y2="-857.639" gradientTransform="matrix(1 0 0 -1 -858.14 -199.79)" gradientUnits="userSpaceOnUse"><stop offset="0" stop-color="#93fd93" class="stopColor93fd93 svgShape"></stop><stop offset=".51" stop-color="#21c2c1" class="stopColor21c2c1 svgShape"></stop><stop offset="1" stop-color="#84f599" class="stopColor84f599 svgShape"></stop></linearGradient><path fill="url(#j)" d="M98 734.8c.1-.2.2-.5.2-.8.8-7.2 11.1-110.9-21.3-144.3-30.7-31.7-31.2-3-31 2.2.1.6.4 1.2.7 1.7 2.3 3.3 12.4 17.7 21.4 16.1 24.9-4.4 2.9 25.5 16.4 41.5 10.8 12.6 7.2 56.2 6.4 67.4-.5 6.3-1.6 12.5-3.2 18.6-.3 1.6.8 3.1 2.3 3.4h.2c.2 0 .4.1.6.1H93c1.4.1 2.6-.6 3.2-1.8l1.8-4.1z"></path><linearGradient id="k" x1="953.832" x2="1012.893" y1="-946.716" y2="-861.302" gradientTransform="matrix(1 0 0 -1 -858.14 -199.79)" gradientUnits="userSpaceOnUse"><stop offset="0" stop-color="#93fd93" class="stopColor93fd93 svgShape"></stop><stop offset=".51" stop-color="#21c2c1" class="stopColor21c2c1 svgShape"></stop><stop offset="1" stop-color="#84f599" class="stopColor84f599 svgShape"></stop></linearGradient><path fill="url(#k)" d="M110.1 741.2s2.2-30.5 20-49.1c5-5.1 11.3-8.6 18.2-10.2 5.3-1.2 14-5.5 21.6-19.8 0 0 14.3-20.3 28.7-26.4 14.3-6.2 0-6.9 0-6.9s-41 7.8-67.3 31.8c-1.7 1.5-3.4 2.9-5.3 4.1-6.8 4.7-25.7 22.2-24.9 73.5l9 3z"></path><linearGradient id="l" x1="919.784" x2="1003.932" y1="-968.789" y2="-968.789" gradientTransform="matrix(1 0 0 -1 -858.14 -199.79)" gradientUnits="userSpaceOnUse"><stop offset="0" stop-color="#f8c547" class="stopColorf8c547 svgShape"></stop><stop offset="1" stop-color="#f71d69" class="stopColorf71d69 svgShape"></stop></linearGradient><path fill="url(#l)" d="M145.7 738.8s.6-3.7-4.3-3.6c-4.3.2-76.7-.4-76.7-.4s-3.4 0-3.2 2.6 11.2 62.9 12.2 64.1c.5.8 1.2 1.4 2.1 1.6 1.4.4 52.2.1 52.2.1 1.2-.2 2.1-1.1 2.2-2.3 0 0 15.6-61.4 15.5-62.1"></path></g><g fill="#000000" class="color000 svgShape"><path fill="#4b44be" d="M885.2 794.7c-2.7-11.4-3.6-26-5.4-26.3h-2l-19.1.2s-4 18.2-6 25.8c-.2.5-.5 1.8-.9 2.7-.4 1.3-.4 2.7-.4 4 .4 6.9 3.1 12.8 9.2 15.9 6.9 3.4 12.1 6.7 19.1 0 7.1-6.8 8.2-10.9 5.5-22.3zM824.7 770.2l-24.2 1.3s-9.6 16.6-23.6 20.6c-13.2 3.8-35 13-25.3 18.2 7.2 4.2 53.8.4 65.1 1.3 8.5.7 10.8-4.5 9.9-15.9-.6-8.6-1.9-25.5-1.9-25.5z" class="color4b44be svgShape"></path><linearGradient id="m" x1="1362.294" x2="1495.598" y1="2244.86" y2="2244.86" gradientTransform="translate(-584.07 -1625.03)" gradientUnits="userSpaceOnUse"><stop offset="0" stop-color="#4f68ca" class="stopColor4f68ca svgShape"></stop><stop offset="1" stop-color="#5aceed" class="stopColor5aceed svgShape"></stop></linearGradient><path fill="url(#m)" d="M795.7 468.1s-16.2 133.5-17.3 142.2 5.6 53.2 5.6 61.7 15.9 99.6 15.9 99.6l25.3-1.1s-5.1-134.1-4.5-140.6c.5-6.5 28.2-84.3 28.2-84.3s2 20.6 2 27.1 7.6 196.2 7.6 196.2h22l31.2-279.4-.5-5.4-115.5-16z"></path><linearGradient id="n" x1="1347.072" x2="1534.398" y1="1991.844" y2="1991.844" gradientTransform="translate(-584.07 -1625.03)" gradientUnits="userSpaceOnUse"><stop offset="0" stop-color="#f87b58" class="stopColorf87b58 svgShape"></stop><stop offset=".41" stop-color="#f89453" class="stopColorf89453 svgShape"></stop><stop offset=".71" stop-color="#f8c548" class="stopColorf8c548 svgShape"></stop><stop offset="1" stop-color="#f89c51" class="stopColorf89c51 svgShape"></stop></linearGradient><path fill="url(#n)" d="M870 210.2s-24.2 9.4-29.6 11.5c-5.4 2.2-8.5 8.8-8.5 8.8s-2.7-1.6-2.7 2.9 2.2 14.8 4 17.5c2.9 4.5 5.4 9 7.8 13.7 2.2 4.7 1.4 14.4-.9 15.9-2.3 1.4-43.1 38.3-43.1 38.3l-34 104.5 4.5 33 6.9 32.5s-1.4 2.3 1.4 5.1c2.9 2.7 15.2 22.9 15.2 22.9l4.2-29.8-13.9-44.2-4.9-37.2 32.5-66.4 112.6 20 12.3 72.4-22.8 61.7-4 30.1 19.1-16.8c1.1-.9 3.2-5.6 4.3-8.1l11.4-32.1 8.5-51.3S879.2 287 875.6 279.4c-1.6-3.4.2-11.7 1.1-15.9.9-3.8 2.7-8.7 4.5-10.1 2.7-2.9 4-7 4.7-10.8 0-2.7 1.1-13.2-1.6-10.6-.5.7-2.5-2.5-3.4-6.7-1.7-6.1-6-11.2-10.9-15.1z"></path><linearGradient id="o" x1="1335.249" x2="1543.398" y1="2016.495" y2="2016.495" gradientTransform="translate(-584.07 -1625.03)" gradientUnits="userSpaceOnUse"><stop offset="0" stop-color="#e1a1ed" class="stopColore1a1ed svgShape"></stop><stop offset="1" stop-color="#7658f4" class="stopColor7658f4 svgShape"></stop></linearGradient><path fill="url(#o)" d="M860.8 314.7c-1.8 1.6-4.5 1.4-6.1-.2-1.3-2-2.5-4-3.4-6-1.8-3.6-15.7-24-15.7-24s-33 8.5-38.3 11.9c-5.4 3.6-10.3 8.5-12.1 14.8-1.8 6.3-27.3 80.5-28.5 85-1.3 4.5-7.8 11.7-4.7 30s20.2 65 22 65.5 20-8.5 20-8.5-14.4-58.1-14.4-63.9c0-5.8 13-22.2 18.2-33.4 5.2-11.2 9-20.9 10.8-25.8s-15.5 96.6-15.5 96.6-.4 18.4 3.1 20.2c3.2 1.6 42 16.4 51.1 19.9.9.4 2-.2 2.5-1.1l5.8-16.4c0-.2.2-.4.4-.2.2 0 .2.2.2.2l5.4 17.9c.2.9 1.3 1.4 2.2 1.3l47.8-10.3s-.7-88.2.2-103c.7-14.4-1.1-22.6 1.6-18.6 2.9 4.3 15 44 15 50.7 0 6.7-13.5 65.3-13.5 65.3l17.9 9.9s24.2-64.4 25.4-72.9c1.3-8.5 1.8-13-2.2-21.5s-26-85.5-26-85.5-2.2-9.4-18.4-14.3-28.3-12.1-31.2-11.9-11.9 17.1-15.9 22.2c-1.9 1.9-1.5 2.8-3.7 6.1z"></path><linearGradient id="p" x1="824.754" x2="887.345" y1="654.797" y2="654.797" gradientTransform="translate(0 -442)" gradientUnits="userSpaceOnUse"><stop offset="0" stop-color="#4f68ca" class="stopColor4f68ca svgShape"></stop><stop offset="1" stop-color="#5aceed" class="stopColor5aceed svgShape"></stop></linearGradient><path fill="url(#p)" d="M869.8 210.3s-27.3 9.9-32.8 14.1c-4.2 3.1-5.1 6-5.1 6s-2.9-1.3-2.7 2.9c.2 4.2-3.2-6.5-4.2-9.9-.7-3.4-.9-13 6.5-20s15.5-12.3 22.4-11.9c6.9.4 12.5 2.3 17.9 7.6 5.4 5.2 6.7 4.9 7.8 5.4 1.1.5 6.7 6.5 7.4 13 .7 6.5-1.3 16.1-1.3 16.1s-1.3-1.4-2.7-.4-1.8-6.1-6.5-15c-3.4-6.6-6.7-7.9-6.7-7.9z"></path><path d="M852.5 531.9c-3.1 9-15.2 26.7-23.1 37.4-7.9 10.6-32.3 33-30.7 60.3 1.6 27.3 18 97.5 18 103.8s-6.1 36.1-10.8 45.3c-4.7 9.2-6.9 25.6-4.5 25.6 4.3-.2 8.8-.7 13.2-1.8 4-.9 7.9-1.8 11.7-3.1 1.6-.7 2-6 2-6 .2-2.2-.2-4.5-.7-6.5-1.1-3.4-2-6.9-2.5-10.3-.9-25.6-3.2-85-2.7-89.2.9-7.8-5.4-46.9.4-66.2 5.7-19.2 29.7-89.3 29.7-89.3zM794 483.2l-4.2 32.1s4.2 6.7 5.4 1.1c1.3-5.6 9.9-16.1 4.5-23.6s-5.7-9.6-5.7-9.6zM911.3 492.1l-1.4 15.3-1.8 14.8s-6.1 4.5-6-1.3c.2-5.8-10.3-14.4-2.3-20.2s11.5-8.6 11.5-8.6zM835.4 284.7c1.1-.2-5.2 1.4.4-.4 9.6-3.1 5.6-21.1 5.6-21.1s.9 6.7 9.9 9.4 11.4.7-2.2 7c-13.5 6.3-6.5 8.5-5.6 16.8M808.3 366.3l-15.2 92s.2 16.4 3.1 18.8c2.9 2.3 12.6 4 14.8 5.6 2.2 1.6 25.6 9.4 19.5-3.8-1.4-2.9-33-20.6-18.9-39.2 14.1-18.6 11.5-44.2 4.9-62.1-4-10.5-6-21.7-5.4-32.8l-2.8 21.5z" enable-background="new" opacity=".07" fill="#000000" class="color000 svgShape"></path></g></svg></g></svg>